<?xml version="1.0" standalone="no"?><svg xmlns="http://www.w3.org/2000/svg" viewBox="0 0 1440 320"><path fill="#5000ca" fill-opacity="0.2" d="M0,288L40,266.7C80,245,160,203,240,181.3C320,160,400,160,480,181.3C560,203,640,245,720,245.3C800,245,880,203,960,154.7C1040,107,1120,53,1200,64C1280,75,1360,149,1400,186.7L1440,224L1440,320L1400,320C1360,320,1280,320,1200,320C1120,320,1040,320,960,320C880,320,800,320,720,320C640,320,560,320,480,320C400,320,320,320,240,320C160,320,80,320,40,320L0,320Z"></path></svg>